#!OML:ASF X:\für Bonn\!DataBase\2005_08_12_Daniel\c3d\Daniel.ASF
:FULLY-SPECIFIED
:DEGREES
1779
root 14.1915 16.7485 -21.0141 -356.089 -33.7191 -357.38
lowerback 19.6258 3.01832 -1.11267
upperback 3.35009 3.40511 -2.79496
thorax -7.22499 1.60513 -3.24214
lowerneck -1.40506 -0.937466 -6.87409
upperneck 8.2587 -1.29779 4.13693
head 3.01177 -0.729866 2.54135
rclavicle -1.43125e-014 -8.94531e-015
rhumerus -33.9666 8.06031 -96.8332
rradius 44.442
rwrist 1.00754
rhand -22.1967 17.1808
rfingers 7.12502
rthumb 4.21886 -12.7571
lclavicle -1.43125e-014 -8.94531e-015
lhumerus -42.7536 14.9369 80.6748
lradius 45.612
lwrist -3.97367
lhand -14.3896 -4.50887
lfingers 7.12502
lthumb 11.7534 25.1414
rfemur 17.9666 8.34545 27.9174
rtibia 24.7547
rfoot -0.966788 0.686568
rtoes 1.84284
lfemur -41.5327 -5.35379 -20.4006
ltibia 57.2285
lfoot -22.9442 -9.36218
ltoes -8.87602
1780
root 14.0536 16.7356 -20.819 -356.074 -33.9603 -357.147
lowerback 19.7502 3.08653 -1.58915
upperback 3.4062 3.37542 -2.94162
thorax -7.25062 1.5979 -3.12887
lowerneck -1.47047 -0.949369 -7.13768
upperneck 8.14839 -1.29196 4.09108
head 2.9901 -0.734409 2.57408
rclavicle -5.56597e-015 -4.45278e-014
rhumerus -33.9519 8.33331 -97.2468
rradius 43.7171
rwrist 1.02995
rhand -21.5433 17.59
rfingers 7.12502
rthumb 4.84981 -12.3345
lclavicle -5.56597e-015 -4.45278e-014
lhumerus -43.2722 14.2281 81.3221
lradius 47.4862
lwrist -2.434
lhand -14.526 -4.50896
lfingers 7.12502
lthumb 11.6219 25.1487
rfemur 16.3727 7.43303 27.1211
rtibia 27.6632
rfoot 1.608 0.586905
rtoes 2.75511
lfemur -41.0728 -5.24763 -20.7168
ltibia 57.8089
lfoot -23.6153 -9.13005
ltoes -9.33404
1781
root 13.9125 16.7266 -20.6207 -356.062 -34.2173 -356.955
lowerback 19.8445 3.14235 -2.02758
upperback 3.49119 3.3385 -3.08267
thorax -7.22656 1.58664 -3.026
lowerneck -1.51526 -0.958747 -7.47918
upperneck 8.00617 -1.28465 4.10331
head 2.95601 -0.738335 2.64103
rclavicle 1.59028e-015 -6.36111e-015
rhumerus -33.8961 8.79406 -97.6578
rradius 42.9711
rwrist 0.919964
rhand -20.8034 17.9931
rfingers 7.12502
rthumb 5.56416 -11.9139
lclavicle 1.59028e-015 -6.36111e-015
lhumerus -43.7421 13.7614 81.903
lradius 49.3037
lwrist -1.19478
lhand -14.4345 -4.5566
lfingers 7.12502
lthumb 11.7101 25.0961
rfemur 14.6912 6.61266 26.3824
rtibia 30.7359
rfoot 4.21311 0.440912
rtoes 3.58433
lfemur -40.5496 -5.14988 -20.9833
ltibia 58.3667
lfoot -24.3581 -8.85936
ltoes -9.6222
1782
root 13.7706 16.7172 -20.4207 -356.087 -34.4776 -356.778
lowerback 19.9479 3.18322 -2.4245
upperback 3.59346 3.28923 -3.23078
thorax -7.18555 1.56804 -2.95094
lowerneck -1.4738 -0.960748 -7.76575
upperneck 7.80306 -1.27174 4.0613
head 2.8827 -0.738999 2.67824
rclavicle -1.98785e-015 -6.75868e-015
rhumerus -33.8476 9.45497 -98.0963
rradius 42.2499
rwrist 0.642225
rhand -20.0024 18.2352
rfingers 7.12502
rthumb 6.33749 -11.65
lclavicle -1.98785e-015 -6.75868e-015
lhumerus -44.1512 13.2836 82.4915
lradius 51.1004
lwrist -0.143267
lhand -14.3165 -4.53679
lfingers 7.12502
lthumb 11.8239 25.1094
rfemur 12.974 5.86294 25.6914
rtibia 33.944
rfoot 6.77282 0.200681
rtoes 3.83744
lfemur -39.9575 -5.06113 -21.2422
ltibia 58.9273
lfoot -25.169 -8.52523
ltoes -9.91209
1783
root 13.629 16.7019 -20.2197 -356.117 -34.7265 -356.643
lowerback 20.0275 3.19886 -2.74937
upperback 3.71039 3.22346 -3.37868
thorax -7.11175 1.5398 -2.90994
lowerneck -1.44697 -0.955683 -8.07312
upperneck 7.64425 -1.25084 4.04701
head 2.82764 -0.735673 2.72983
rclavicle 8.64713e-014 -4.8901e-014
rhumerus -33.901 10.0281 -98.4882
rradius 41.698
rwrist 0.447884
rhand -19.0458 18.2646
rfingers 7.12502
rthumb 7.26095 -11.5908
lclavicle 8.64713e-014 -4.8901e-014
lhumerus -44.4892 12.7411 83.0895
lradius 52.863
lwrist 0.861384
lhand -14.1404 -4.5701
lfingers 7.12502
lthumb 11.9937 25.0663
rfemur 11.2117 5.1142 25.0512
rtibia 37.2519
rfoot 9.16647 -0.0330732
rtoes 3.69471
lfemur -39.3364 -5.05943 -21.4498
ltibia 59.5112
lfoot -26.0387 -8.13469
ltoes -10.2284
1784
root 13.4886 16.6819 -20.0175 -356.151 -34.9966 -356.528
lowerback 20.0679 3.20128 -3.05373
upperback 3.83672 3.15006 -3.49597
thorax -7.00723 1.50757 -2.84251
lowerneck -1.39272 -0.939219 -8.43623
upperneck 7.4629 -1.21371 4.01128
head 2.75937 -0.725984 2.78474
rclavicle -1.145e-013 2.8625e-014
rhumerus -34.0262 10.2169 -98.7305
rradius 41.2151
rwrist 0.659312
rhand -17.9755 18.1653
rfingers 7.12502
rthumb 8.29396 -11.6519
lclavicle -1.145e-013 2.8625e-014
lhumerus -44.7244 12.0473 83.812
lradius 54.5739
lwrist 1.79027
lhand -14.1726 -4.49652
lfingers 7.12502
lthumb 11.9627 25.1417
rfemur 9.41533 4.40687 24.4182
rtibia 40.6386
rfoot 11.3053 -0.195115
rtoes 3.06487
lfemur -38.7044 -5.05609 -21.6385
ltibia 60.1286
lfoot -26.9478 -7.73851
ltoes -10.4688
1785
root 13.3475 16.6548 -19.8145 -356.187 -35.2717 -356.47
lowerback 20.0726 3.17949 -3.24255
upperback 3.98169 3.07018 -3.64119
thorax -6.85549 1.46945 -2.86588
lowerneck -1.34814 -0.934191 -8.66133
upperneck 7.30989 -1.19314 3.90763
head 2.70016 -0.722519 2.79013
rclavicle -1.64991e-014 2.10712e-014
rhumerus -34.196 9.87116 -98.8746
rradius 40.7739
rwrist 1.28728
rhand -16.7716 17.9524
rfingers 7.12502
rthumb 9.45571 -11.8155
lclavicle -1.64991e-014 2.10712e-014
lhumerus -44.7806 11.1589 84.5137
lradius 56.1813
lwrist 2.74026
lhand -14.2815 -4.42335
lfingers 7.12502
lthumb 11.8577 25.2209
rfemur 7.60354 3.68403 23.8235
rtibia 44.0936
rfoot 13.1057 -0.302213
rtoes 1.44421
lfemur -38.0485 -5.02204 -21.7992
ltibia 60.7783
lfoot -27.9086 -7.31913
ltoes -10.7938
1786
root 13.2071 16.6237 -19.61 -356.198 -35.5458 -356.438
lowerback 19.9914 3.12714 -3.38444
upperback 4.14726 2.96886 -3.77048
thorax -6.63473 1.42032 -2.88693
lowerneck -1.32174 -0.906161 -8.8951
upperneck 7.14377 -1.13911 3.78174
head 2.63738 -0.702514 2.79035
rclavicle -3.67752e-014 -1.51076e-014
rhumerus -34.4347 9.44502 -98.9285
rradius 40.3597
rwrist 2.06807
rhand -15.5901 17.5943
rfingers 7.12502
rthumb 10.5956 -12.1186
lclavicle -3.67752e-014 -1.51076e-014
lhumerus -44.6557 10.1915 85.271
lradius 57.6544
lwrist 3.60809
lhand -14.6043 -4.49022
lfingers 7.12502
lthumb 11.5464 25.1717
rfemur 5.73989 2.96765 23.2398
rtibia 47.6089
rfoot 14.5083 -0.358397
rtoes -0.210966
lfemur -37.3902 -5.00452 -21.9338
ltibia 61.4192
lfoot -28.9076 -6.92955
ltoes -11.1247
1787
root 13.0696 16.597 -19.4028 -356.229 -35.8805 -356.488
lowerback 19.9714 3.06515 -3.38435
upperback 4.31145 2.88049 -3.90353
thorax -6.44075 1.37462 -2.99969
lowerneck -1.22188 -0.874053 -9.08448
upperneck 6.96731 -1.08721 3.62446
head 2.55645 -0.683159 2.77088
rclavicle -3.61788e-014 3.10104e-014
rhumerus -34.7411 8.79777 -98.901
rradius 39.9223
rwrist 2.97998
rhand -14.5559 17.1219
rfingers 7.12502
rthumb 11.593 -12.5375
lclavicle -3.61788e-014 3.10104e-014
lhumerus -44.401 9.08795 86.0221
lradius 58.9958
lwrist 4.37862
lhand -15.0877 -4.61984
lfingers 7.12502
lthumb 11.0802 25.0677
rfemur 3.80809 2.21237 22.7064
rtibia 51.1789
rfoot 15.4643 -0.0658011
rtoes -2.84196
lfemur -36.6029 -4.87914 -22.0299
ltibia 62.0063
lfoot -29.9165 -6.55442
ltoes -11.3961
1788
root 12.9335 16.5733 -19.1945 -356.238 -36.2714 -356.615
lowerback 20.0099 2.9965 -3.31075
upperback 4.45187 2.79599 -4.0127
thorax -6.3017 1.32988 -3.13397
lowerneck -1.16959 -0.83596 -9.2894
upperneck 6.8319 -1.02307 3.45728
head 2.4976 -0.658542 2.7519
rclavicle -5.60573e-014 4.77083e-014
rhumerus -35.055 8.0247 -98.7583
rradius 39.331
rwrist 3.98076
rhand -13.6879 16.7031
rfingers 7.12502
rthumb 12.43 -12.9073
lclavicle -5.60573e-014 4.77083e-014
lhumerus -44.1349 7.92144 86.7823
lradius 60.3043
lwrist 4.9982
lhand -15.6419 -4.92177
lfingers 7.12502
lthumb 10.5456 24.7937
rfemur 1.80482 1.56776 22.2616
rtibia 54.7854
rfoot 15.9367 0.435004
rtoes -5.46025
lfemur -35.7304 -4.64631 -22.0619
ltibia 62.5119
lfoot -30.9185 -6.29555
ltoes -11.6421
1789
root 12.7961 16.5479 -18.9847 -356.227 -36.6197 -356.778
lowerback 20.083 2.89465 -3.1875
upperback 4.58536 2.67648 -4.11808
thorax -6.188 1.26771 -3.28606
lowerneck -1.33526 -0.808035 -9.35421
upperneck 6.81375 -0.951359 3.20448
head 2.51459 -0.629839 2.67951
rclavicle -3.26007e-014 -1.27222e-014
rhumerus -35.2507 7.05716 -98.4999
rradius 38.5137
rwrist 5.09827
rhand -13.0851 16.3433
rfingers 7.12502
rthumb 13.0112 -13.231
lclavicle -3.26007e-014 -1.27222e-014
lhumerus -43.8576 6.78384 87.4967
lradius 61.6166
lwrist 5.44831
lhand -16.167 -5.35051
lfingers 7.12502
lthumb 10.039 24.3901
rfemur -0.220336 0.991975 21.8876
rtibia 58.363
rfoot 15.9582 0.983361
rtoes -7.3688
lfemur -34.8031 -4.34127 -22.0637
ltibia 62.9392
lfoot -31.9175 -6.19175
ltoes -11.8208
1790
root 12.6545 16.5197 -18.7738 -356.177 -36.8821 -356.984
lowerback 20.0523 2.73674 -3.02707
upperback 4.71991 2.50079 -4.20688
thorax -6.02057 1.17899 -3.42161
lowerneck -1.42412 -0.759287 -9.43707
upperneck 6.77945 -0.858733 2.94943
head 2.51089 -0.591597 2.60994
rclavicle 2.90226e-014 -5.32743e-014
rhumerus -35.5757 5.93269 -98.132
rradius 37.6051
rwrist 6.28656
rhand -12.8553 16.1896
rfingers 7.12502
rthumb 13.2327 -13.3704
lclavicle 2.90226e-014 -5.32743e-014
lhumerus -43.6348 5.68099 88.1595
lradius 62.9886
lwrist 5.69241
lhand -16.5932 -5.78139
lfingers 7.12502
lthumb 9.62783 23.9786
rfemur -2.28868 0.357633 21.5909
rtibia 61.8396
rfoot 15.7216 1.65569
rtoes -8.13717
lfemur -33.8417 -4.06867 -22.0073
ltibia 63.2867
lfoot -32.865 -6.21481
ltoes -11.9315
1791
root 12.5135 16.4894 -18.5642 -356.137 -37.1304 -357.231
lowerback 20.0863 2.55823 -2.86942
upperback 4.83945 2.29713 -4.24431
thorax -5.90847 1.07698 -3.49787
lowerneck -1.60704 -0.692592 -9.50205
upperneck 6.80349 -0.729495 2.63769
head 2.54098 -0.537513 2.51986
rclavicle -9.74045e-014 1.90833e-014
rhumerus -35.928 4.62608 -97.565
rradius 36.5136
rwrist 7.64998
rhand -13.0423 16.2732
rfingers 7.12502
rthumb 13.0524 -13.2984
lclavicle -9.74045e-014 1.90833e-014
lhumerus -43.2399 4.68255 88.8056
lradius 64.2762
lwrist 5.75365
lhand -16.8305 -6.1817
lfingers 7.12502
lthumb 9.39893 23.5887
rfemur -4.33494 -0.26816 21.3811
rtibia 65.1465
rfoot 15.1936 2.44081
rtoes -8.36091
lfemur -32.8027 -3.8155 -21.8963
ltibia 63.5599
lfoot -33.7637 -6.34067
ltoes -11.3464
1792
root 12.3715 16.4601 -18.3551 -356.074 -37.3685 -357.522
lowerback 20.129 2.34682 -2.73753
upperback 4.94228 2.0479 -4.23915
thorax -5.82467 0.95342 -3.50353
lowerneck -1.85921 -0.601561 -9.49308
upperneck 6.86591 -0.557714 2.24349
head 2.59245 -0.464044 2.39029
rclavicle -1.27222e-014 1.27222e-014
rhumerus -36.4437 3.49939 -96.9308
rradius 35.5867
rwrist 8.75209
rhand -13.5879 16.4302
rfingers 7.12502
rthumb 12.5264 -13.1743
lclavicle -1.27222e-014 1.27222e-014
lhumerus -42.5971 3.75971 89.3663
lradius 65.4647
lwrist 5.66826
lhand -16.9104 -6.30634
lfingers 7.12502
lthumb 9.32183 23.4676
rfemur -6.34706 -0.902179 21.244
rtibia 68.2446
rfoot 14.4325 3.26046
rtoes -8.54578
lfemur -31.6957 -3.537 -21.7314
ltibia 63.7355
lfoot -34.6251 -6.55932
ltoes -10.6904
